HIERARCHY
ROOT Hips
{
	OFFSET 0.00000 0.00000 0.00000
	CHANNELS 6 Xposition Yposition Zposition Zrotation Yrotation Xrotation 
	JOINT LHipJoint
	{
		OFFSET 0 0 0
		CHANNELS 3 Zrotation Yrotation Xrotation
		JOINT LeftHip
		{
			OFFSET 1.44361 -1.63093 0.70831
			CHANNELS 3 Zrotation Yrotation Xrotation
			JOINT LeftKnee
			{
				OFFSET 2.20103 -6.04728 0.00000
				CHANNELS 3 Zrotation Yrotation Xrotation
				JOINT LeftAnkle
				{
					OFFSET 2.54154 -6.98283 0.00000
					CHANNELS 3 Zrotation Yrotation Xrotation
					JOINT LeftToe
					{
						OFFSET 0.05971 -0.16406 1.77582
						CHANNELS 3 Zrotation Yrotation Xrotation
						End Site
						{
							OFFSET 0.00000 -0.00000 0.90832
						}
					}
				}
			}
		}
	}
	JOINT RHipJoint
	{
		OFFSET 0 0 0
		CHANNELS 3 Zrotation Yrotation Xrotation
		JOINT RightHip
		{
			OFFSET -1.65838 -1.63093 0.70830
			CHANNELS 3 Zrotation Yrotation Xrotation
			JOINT RightKnee
			{
				OFFSET -2.26926 -6.23475 0.00000
				CHANNELS 3 Zrotation Yrotation Xrotation
				JOINT RightAnkle
				{
					OFFSET -2.34808 -6.45129 0.00000
					CHANNELS 3 Zrotation Yrotation Xrotation
					JOINT RightToe
					{
						OFFSET -0.18633 -0.51195 1.68539
						CHANNELS 3 Zrotation Yrotation Xrotation
						End Site
						{
							OFFSET -0.00000 -0.00000 0.88927
						}
					}
				}
			}
		}
	}
	JOINT lowerback
	{
		OFFSET 0 0 0
		CHANNELS 3 Zrotation Yrotation Xrotation
		JOINT Chest
		{
			OFFSET -0.10393 2.01691 0.06920
			CHANNELS 3 Zrotation Yrotation Xrotation
			JOINT Chest2
			{
				OFFSET 0.04092 2.01302 -0.05283
				CHANNELS 3 Zrotation Yrotation Xrotation
				JOINT lowerneck
				{
					OFFSET 0 0 0
					CHANNELS 3 Zrotation Yrotation Xrotation
					JOINT Neck
					{
						OFFSET -0.02870 1.58978 -0.03113
						CHANNELS 3 Zrotation Yrotation Xrotation
						JOINT Head
						{
							OFFSET 0.11532 1.54326 -0.29195
							CHANNELS 3 Zrotation Yrotation Xrotation
							End Site
							{
								OFFSET 0.04056 1.59999 -0.09535
							}
						}
					}
				}
				JOINT LeftCollar
				{
					OFFSET 0 0 0
					CHANNELS 3 Zrotation Yrotation Xrotation
					JOINT LeftShoulder
					{
						OFFSET 3.30641 1.15764 0.01104
CHANNELS 3 Zrotation Xrotation Yrotation
						JOINT LeftElbow
						{
OFFSET 0 -4.632080 0.000000
CHANNELS 3 Zrotation Xrotation Yrotation
							JOINT LeftWrist
							{
OFFSET 0 -3.419240 -0.000000
CHANNELS 3 Zrotation Xrotation Yrotation
								JOINT lhand
								{
									OFFSET 0 0 0
CHANNELS 3 Zrotation Xrotation Yrotation
									JOINT LFingers
									{
OFFSET 0 -0.625370 -0.000000
CHANNELS 3 Zrotation Xrotation Yrotation
										End Site
										{
OFFSET 0 -0.504190 -0.000000
										}
									}
								}
								JOINT LThumb
								{
OFFSET 0 0.000000 0.000000
CHANNELS 3 Zrotation Xrotation Yrotation
									End Site
									{
OFFSET 0 -0.511890 0.511890
									}
								}
							}
						}
					}
				}
				JOINT RightCollar
				{
					OFFSET 0 0 0
					CHANNELS 3 Zrotation Yrotation Xrotation
					JOINT RightShoulder
					{
						OFFSET -3.78081 1.02180 -0.16609
CHANNELS 3 Zrotation Xrotation Yrotation
						JOINT RightElbow
						{
OFFSET 0 -4.406400 -0.000000
CHANNELS 3 Zrotation Xrotation Yrotation
							JOINT RightWrist
							{
OFFSET 0 -3.446750 0.000000
CHANNELS 3 Zrotation Xrotation Yrotation
								JOINT rhand
								{
									OFFSET 0 0 0
CHANNELS 3 Zrotation Xrotation Yrotation
									JOINT RFingers
									{
OFFSET 0 -0.513670 -0.000000
CHANNELS 3 Zrotation Xrotation Yrotation
										End Site
										{
OFFSET 0 -0.414140 -0.000000
										}
									}
								}
								JOINT RThumb
								{
OFFSET 0 0.000000 0.000000
CHANNELS 3 Zrotation Xrotation Yrotation
									End Site
									{
OFFSET 0 -0.420460 0.420460
									}
								}
							}
						}
					}
				}
			}
		}
	}
}
MOTION
Frames: 4
Frame Time: 0.008333333333333333
10.068500 12.664200 -8.350600 0.888100 2.207300 1.002800 0.000000 0.000000 0.000000 -9.835200 -16.842100 -42.103100 0.000000 0.000000 0.000000 0.000000 0.000000 0.000000 0.000000 0.000000 0.000000 0.000000 0.000000 0.000000 10.149600 9.170300 -40.203600 0.000000 0.000000 0.000000 -0.000000 -0.000000 0.000000 -0.000000 -0.000000 0.000000 -5.330000 0.243600 11.626100 1.095300 -0.148100 7.838500 4.157100 -0.299200 1.733900 -6.108600 -7.960400 -7.269800 5.531300 -10.293700 1.296000 2.365500 -5.046700 2.349800 -0.000000 0.000000 0.000000 89.048600 -62.867100 -11.654500 31.319200 -41.997700 12.282900 43.424200 0.825400 19.755500 0.000000 0.000000 0.000000 -7.125000 0.000000 0.000000 9.362000 3.967100 8.812500 -0.000000 0.000000 0.000000 -81.415500 -62.230300 17.164000 -37.053500 -46.224000 -16.278700 -26.201900 19.185500 28.654900 0.000000 0.000000 0.000000 7.125000 0.000000 -0.000000 5.353900 61.244200 -2.121500
10.068566 12.663274 -8.348220 0.978506 2.231265 0.998503 0.000000 0.000000 0.000000 -9.952612 -16.847422 -42.067401 0.000000 0.000000 0.000000 0.000000 0.000000 0.000000 0.000000 0.000000 0.000000 0.000000 0.000000 0.000000 10.039130 9.093083 -40.200989 0.000000 0.000000 0.000000 0.000000 0.000000 0.000000 0.000000 0.000000 0.000000 -5.407713 0.240757 11.590334 1.074905 -0.155868 7.866828 4.180106 -0.307662 1.785532 -6.152497 -7.952136 -7.266924 5.559694 -10.281734 1.344955 2.382755 -5.040254 2.369931 0.000000 0.000000 0.000000 89.050385 -62.846705 -11.606008 31.294971 -41.977834 12.266670 43.423241 0.893361 19.784357 0.000000 0.000000 0.000000 -7.125000 0.000000 0.000000 9.355058 3.931434 8.812037 0.000000 0.000000 0.000000 -81.499328 -62.183593 17.064769 -37.035485 -46.212067 -16.265676 -26.158102 19.104614 28.592393 0.000000 0.000000 0.000000 7.125000 0.000000 0.000000 5.373766 61.168074 -2.119616
10.068632 12.662349 -8.345840 1.068911 2.255230 0.994206 0.000000 0.000000 0.000000 -10.070023 -16.852744 -42.031701 0.000000 0.000000 0.000000 0.000000 0.000000 0.000000 0.000000 0.000000 0.000000 0.000000 0.000000 0.000000 9.928660 9.015867 -40.198377 0.000000 0.000000 0.000000 0.000000 0.000000 0.000000 0.000000 0.000000 0.000000 -5.485425 0.237915 11.554569 1.054510 -0.163636 7.895156 4.203113 -0.316124 1.837164 -6.196394 -7.943872 -7.264048 5.588089 -10.269768 1.393909 2.400010 -5.033809 2.390061 0.000000 0.000000 0.000000 89.052170 -62.826310 -11.557516 31.270741 -41.957968 12.250440 43.422283 0.961323 19.813214 0.000000 0.000000 0.000000 -7.125000 0.000000 0.000000 9.348117 3.895767 8.811574 0.000000 0.000000 0.000000 -81.583155 -62.136886 16.965537 -37.017470 -46.200134 -16.252653 -26.114304 19.023728 28.529886 0.000000 0.000000 0.000000 7.125000 0.000000 0.000000 5.393632 61.091948 -2.117732
10.068698 12.661423 -8.343460 1.159317 2.279195 0.989909 0.000000 0.000000 0.000000 -10.187435 -16.858066 -41.996002 0.000000 0.000000 0.000000 0.000000 0.000000 0.000000 0.000000 0.000000 0.000000 0.000000 0.000000 0.000000 9.818190 8.938650 -40.195766 0.000000 0.000000 0.000000 0.000000 0.000000 0.000000 0.000000 0.000000 0.000000 -5.563138 0.235072 11.518803 1.034115 -0.171404 7.923485 4.226119 -0.324586 1.888796 -6.240291 -7.935609 -7.261173 5.616483 -10.257802 1.442864 2.417264 -5.027363 2.410192 0.000000 0.000000 0.000000 89.053955 -62.805915 -11.509025 31.246512 -41.938102 12.234210 43.421324 1.029284 19.842071 0.000000 0.000000 0.000000 -7.125000 0.000000 0.000000 9.341175 3.860101 8.811112 0.000000 0.000000 0.000000 -81.666983 -62.090179 16.866306 -36.999455 -46.188201 -16.239629 -26.070506 18.942843 28.467378 0.000000 0.000000 0.000000 7.125000 0.000000 0.000000 5.413498 61.015822 -2.115848
